<svg xmlns="http://www.w3.org/2000/svg" viewBox="0 0 200 200" fill="none" role="img" aria-label="IT security illustration" width="200" height="200">
  <title>IT security &amp; protection</title>
  <circle cx="100" cy="100" r="92" fill="#eef5ff"/>
  <!-- shield -->
  <path d="M100 44l40 16v28c0 30-18 50-40 60-22-10-40-30-40-60V60l40-16Z" fill="#fff" stroke="#2f80ed" stroke-width="3"/>
  <path d="M100 44l40 16v28c0 30-18 50-40 60V44Z" fill="#eaf2ff"/>
  <!-- check -->
  <path d="M82 100l12 12 24-24" stroke="#1565d8" stroke-width="6" stroke-linecap="round" stroke-linejoin="round" fill="none"/>
  <!-- lock badge -->
  <g transform="translate(124 118)">
    <rect x="0" y="10" width="30" height="22" rx="5" fill="#2bb6a3"/>
    <path d="M7 10v-4a8 8 0 0 1 16 0v4" stroke="#2bb6a3" stroke-width="3.5" fill="none"/>
    <circle cx="15" cy="20" r="3.4" fill="#fff"/>
  </g>
</svg>
