<svg xmlns="http://www.w3.org/2000/svg" viewBox="0 0 200 200" fill="none" role="img" aria-label="Software and web development illustration" width="200" height="200">
  <title>Software &amp; web development</title>
  <circle cx="100" cy="100" r="92" fill="#eef5ff"/>
  <!-- browser window -->
  <rect x="40" y="52" width="120" height="96" rx="10" fill="#fff" stroke="#d7e6ff" stroke-width="2"/>
  <rect x="40" y="52" width="120" height="20" rx="10" fill="#1565d8"/>
  <rect x="40" y="62" width="120" height="10" fill="#1565d8"/>
  <circle cx="51" cy="62" r="3" fill="#fff"/><circle cx="60" cy="62" r="3" fill="#a9d1ff"/><circle cx="69" cy="62" r="3" fill="#a9d1ff"/>
  <!-- code -->
  <path d="M70 96l-12 10 12 10M130 96l12 10-12 10M108 88l-16 36" stroke="#2f80ed" stroke-width="4.5" stroke-linecap="round" stroke-linejoin="round" fill="none"/>
  <!-- gear accent -->
  <g transform="translate(120 116)">
    <path d="M16 0l3 7 8-1 1 8 7 3-3 7 3 7-7 3-1 8-8-1-3 7-3-7-8 1-1-8-7-3 3-7-3-7 7-3 1-8 8 1z" fill="#fff4e3" stroke="#f5a524" stroke-width="2"/>
    <circle cx="16" cy="23" r="7" fill="#f5a524"/>
  </g>
</svg>
